<svg version="1.1" class="clearos-svg clearfoundation app-vendor-clearfoundation app-free app-category-system app-sub-category-account-manager" viewBox="0 0 400 400" preserveAspectRatio="xMinYMin" xmlns="http://www.w3.org/2000/svg" xmlns:xlink= "http://www.w3.org/1999/xlink">
<path id="path28" fill="#AA0707" d="M441.666,184.647"/>
<path id="path30" fill="#AA0707" d="M473.245,247.805"/>
<path id="path32" fill="#AA0707" d="M441.666,184.647"/>
<path id="path34" fill="#AA0707" d="M473.245,247.805"/>
<g>
	<path fill="#686868" d="M131.615,240.066c-12.678,0-22.953,10.272-22.953,22.946c0,12.681,10.275,22.953,22.953,22.953
		c12.674,0,22.949-10.272,22.949-22.953C154.564,250.338,144.289,240.066,131.615,240.066z"/>
	<path fill="#686868" d="M131.615,138.527c-68.755,0-124.486,55.737-124.486,124.486c0,68.752,55.731,124.491,124.486,124.491
		c68.751,0,124.485-55.74,124.485-124.491C256.099,194.264,200.365,138.527,131.615,138.527z M131.615,295.239
		c-17.801,0-32.226-14.429-32.226-32.226c0-17.798,14.425-32.22,32.226-32.22c17.798,0,32.222,14.422,32.222,32.22
		C163.837,280.81,149.412,295.239,131.615,295.239z"/>
	<path fill="#686868" d="M156.417,5.002c0,0-37.09-12.983-52.851,21.558C98.23,37.225,98.93,50.901,98.93,50.901v83.348
		c10.456-2.649,21.405-4.065,32.685-4.065c73.356,0,132.829,59.472,132.829,132.829c0,37.798-15.813,71.878-41.15,96.066
		l1.741,2.927l89.951,31.527c0,0,19.476,9.267,22.253-0.93V127.4L123.964,56.003c0,0-7.417-11.127,3.707-22.254
		c8.169-8.169,16.69-5.563,16.69-5.563l226.258,70.471v233.675c0,0,10.203,20.4,22.253-0.93V82.893L156.417,5.002z"/>
</g>
</svg>
